<?xml version="1.0" encoding="utf-8"?>
<!-- Generator: Adobe Illustrator 26.2.1, SVG Export Plug-In . SVG Version: 6.00 Build 0)  -->
<svg version="1.1" id="Ebene_1" xmlns="http://www.w3.org/2000/svg" xmlns:xlink="http://www.w3.org/1999/xlink" x="0px" y="0px"
	 viewBox="0 0 92.4 92.4" style="enable-background:new 0 0 92.4 92.4;" xml:space="preserve">
<style type="text/css">
	.st0{fill:#C11818;}
	.st1{fill:#FFFFFF;stroke:#FFFFFF;}
	.st2{fill:none;stroke:#FFFFFF;stroke-width:4;}
	.st3{fill:#FFFFFF;}
</style>
<path class="st0" d="M9,0h73.9c5.1,0,9.2,4.1,9.2,9.2v73.9c0,5.1-4.1,9.2-9.2,9.2H9c-5.1,0-9.2-4.1-9.2-9.2V9.2C-0.3,4.1,3.9,0,9,0z
	"/>
<g>
	<path class="st1" d="M33.7,24c0,0-12.2,0.5-15.3,26.2c-0.1,0.9-0.3,1.9-0.8,2.9c-2,3.9-6.7,4.7-7.4,4.8c1-3.2,1.2-5.7,1.1-7.4
		C11.1,44.9,8.5,37.1,8,32.3c-0.1-0.7-0.4-2.6,0.6-2.9c0.4-0.1,0.9-0.3,1.6-0.4c1-0.2,2-0.6,2.8-1.1C17.3,25.4,29.9,18.7,33.7,24z"
		/>
</g>
<path class="st1" d="M69.3,45.6c-0.4,2.8-2.7,6.7-6.7,6.7c-4.2,0-7.2-4.1-6.7-6.7c0.7-4.2,10.2-6.6,12.8-3.8
	C69.7,43,69.4,44.7,69.3,45.6z"/>
<path class="st1" d="M36.6,46.2c0.3,2.7-2.5,6.7-6.7,6.7c-4,0-6.6-3.6-6.7-6.7c0-0.4-0.1-2.8,1.4-4.2C27.7,39.2,36,42,36.6,46.2z"/>
<ellipse class="st2" cx="47.5" cy="61.3" rx="22.8" ry="12.6"/>
<path class="st1" d="M52.7,48.6c0.2,1.9-3.3,4.2-6.5,4.2c-3.2,0-6.7-2.3-6.5-4.2c0.2-1.8,3.8-3.1,6.5-3.1
	C48.9,45.5,52.5,46.8,52.7,48.6z"/>
<path class="st1" d="M60.1,70.7c0.3,0.7-5.6,5.6-13.1,5.3c-6.5-0.3-11.4-4.3-11.1-5c0.3-0.6,5.2,2.2,8.3-0.1c3-2.2,2.2-8.1,2.9-8.1
	c0.7,0,0,5.8,3.1,8.1C53.6,73.6,59.9,70,60.1,70.7z"/>
<path class="st2" d="M19,54.1C16,39.2,28.5,24.4,42.9,22.3C60.4,19.7,78.1,36.7,75.8,53C73.9,66.2,59,76.1,44.8,75
	C33.7,74.2,21.4,66.5,19,54.1z"/>
<g>
	<path class="st1" d="M80.9,28.4c0.9,0.5,1.8,0.9,2.8,1.1c0.6,0.1,1.1,0.2,1.6,0.4c1,0.3,0.7,2.2,0.7,2.9
		c-0.5,4.8-3.1,12.7-3.3,18.2c-0.1,1.7,0.1,4.2,1.1,7.4c-0.7-0.1-5.4-0.9-7.4-4.8c-0.5-1-0.7-2.1-0.8-2.9
		C72.5,25,60.2,24.5,60.2,24.5C64,19.2,76.6,25.9,80.9,28.4z"/>
</g>
<path class="st1" d="M30.4,28.7c27.5,18.5,46.8,23.9,46.8,23.9"/>
<path class="st0" d="M15.1,41.6c0.4,7.7-0.2,17.1-3.6,27c-0.5,1.5-1.1,2.9-1.7,4.3"/>
<circle class="st3" cx="37.2" cy="58.7" r="0.9"/>
<circle class="st3" cx="34.1" cy="60.3" r="0.9"/>
<circle class="st3" cx="37.8" cy="62.3" r="0.9"/>
<circle class="st3" cx="55" cy="57.9" r="0.9"/>
<circle class="st3" cx="59" cy="57.7" r="0.9"/>
<circle class="st3" cx="57.2" cy="61.3" r="0.9"/>
</svg>
