<svg xmlns="http://www.w3.org/2000/svg" viewBox="-4.2 -16.2 92.4 92.4">
            <rect x="-4.2" y="-16.2" width="92.4" height="92.4" fill="#c11818" rx="10%" ry="10%"/><g fill="#FFF" stroke="#FFF" x="0">
<g>
   <path class="st0" d="M42.82,60.78c-14.01,0-26.03-9.1-29.34-22.17c-3.21-4.12-4.9-9.04-4.9-14.24c0-12.94,10.7-23.47,23.86-23.47   c3.07,0,6.05,0.57,8.88,1.68c0.35-0.02,0.7-0.03,1.05-0.03c3.17-1.46,6.56-2.19,10.08-2.19c13.15,0,23.86,10.53,23.86,23.47   c0,4.43-1.26,8.74-3.66,12.48C70.32,50.28,57.56,60.78,42.82,60.78z M32.43,3.9c-11.5,0-20.86,9.18-20.86,20.47   c0,4.62,1.54,8.99,4.45,12.63l0.21,0.26l0.08,0.32c2.87,11.9,13.77,20.2,26.51,20.2c13.39,0,24.96-9.57,26.92-22.26l0.05-0.32   l0.18-0.27c2.19-3.31,3.34-7.15,3.34-11.1c0-11.29-9.36-20.47-20.86-20.47c-3.19,0-6.25,0.69-9.1,2.04l-0.3,0.14l-0.33,0   c-0.53,0-1.04,0.02-1.56,0.05l-0.34,0.02l-0.32-0.13C37.94,4.43,35.23,3.9,32.43,3.9z"/>
</g>
<g>
   <path class="st0" d="M58.12,2.7c0,0,12.22,0.55,15.31,26.16c0,0,0.73,5.56,4.38,6.65c0,0,2.32-20.61,5.97-24.54   c0.89-0.96,0.57-2.49-0.65-2.92c-0.42-0.15-0.93-0.29-1.56-0.41c-1-0.19-1.96-0.57-2.84-1.08C74.44,4.08,61.88-2.56,58.12,2.7z"/>
</g>
<g>
   <path class="st0" d="M26.59,3.82c0,0-12.22,0.55-15.31,26.16c0,0-0.73,5.56-4.38,6.65c0,0-2.32-20.61-5.97-24.54   c-0.89-0.96-0.57-2.49,0.65-2.92C2,9.03,2.51,8.89,3.13,8.78c1-0.19,1.96-0.57,2.84-1.08C10.27,5.2,22.83-1.44,26.59,3.82z"/>
</g>
<g>
   <path class="st0" d="M56.06,56.27c-0.69,0-1.42-0.06-2.17-0.19c-3.28-0.55-6.78-2.25-9.87-4.81c-0.39-0.32-0.77-0.65-1.14-1   c-0.37,0.34-0.75,0.68-1.14,1c-3.09,2.55-6.6,4.26-9.87,4.81c-3.57,0.59-6.49-0.24-8.24-2.34c-3.44-4.17-0.88-11.77,5.83-17.32   c4.31-3.57,9.43-5.42,13.42-4.89c3.99-0.53,9.1,1.32,13.42,4.89h0c6.71,5.55,9.27,13.15,5.83,17.32   C60.75,55.41,58.64,56.27,56.06,56.27z M42.87,46l1.09,1.14c0.61,0.64,1.27,1.25,1.96,1.83c2.69,2.22,5.69,3.7,8.46,4.16   c2.47,0.41,4.4-0.05,5.43-1.29c2.29-2.77-0.19-8.77-5.43-13.1h0c-3.7-3.06-8.12-4.7-11.27-4.21l-0.24,0.04l-0.24-0.04   c-3.15-0.5-7.57,1.15-11.27,4.21c-5.24,4.33-7.72,10.32-5.43,13.1c1.03,1.25,2.96,1.71,5.43,1.29c2.77-0.46,5.77-1.94,8.46-4.16   c0.69-0.57,1.35-1.19,1.96-1.83L42.87,46z"/>
</g>
<g>
   <ellipse class="st0" cx="42.87" cy="52.33" rx="3.42" ry="3.14"/>
</g>
<g>
   <g>
      <path class="st0" d="M64.17,31.48c2.09-3.48,0.96-8-2.52-10.09c-3.48-2.09-8-0.96-10.09,2.53s-0.96,8,2.53,10.09    C57.56,36.09,62.08,34.96,64.17,31.48z M57.83,24.18c0.81-1.35,2.56-1.78,3.9-0.98s1.79,2.56,0.98,3.9    c-0.81,1.35-2.56,1.78-3.9,0.98C57.46,27.28,57.02,25.53,57.83,24.18z M53.12,29.26c0.47-0.79,1.5-1.05,2.29-0.57    c0.79,0.47,1.05,1.5,0.57,2.29s-1.5,1.05-2.29,0.57C52.9,31.07,52.65,30.05,53.12,29.26z"/>
   </g>
</g>
<g>
   <g>
      <path class="st0" d="M33.99,32.22c2.09-3.48,0.96-8-2.53-10.09s-8-0.96-10.09,2.53s-0.96,8,2.52,10.09S31.9,35.7,33.99,32.22z     M27.65,24.92c0.81-1.35,2.56-1.78,3.9-0.98c1.35,0.81,1.79,2.56,0.98,3.9c-0.81,1.35-2.56,1.78-3.9,0.98    C27.28,28.02,26.84,26.27,27.65,24.92z M22.94,30c0.47-0.79,1.5-1.05,2.29-0.57c0.79,0.47,1.05,1.5,0.57,2.29    c-0.47,0.79-1.5,1.05-2.29,0.57C22.72,31.81,22.46,30.79,22.94,30z"/>
   </g>
</g>
<g>
   <g>
      <path class="st0" d="M37.53,32.18c0.02-1.6,1.38-2.88,3.02-2.85c1.19,0.02,2.2,0.71,2.66,1.7c0.49-0.97,1.52-1.64,2.71-1.62    c1.64,0.03,2.95,1.34,2.93,2.94c-0.02,1.11-0.67,2.07-1.62,2.54l-4.25,3.71l-3.88-3.82C38.15,34.27,37.52,33.29,37.53,32.18z"/>
   </g>
</g>
</g>
        </svg>